# Blender 3.5.0
# www.blender.org
mtllib bullet.mtl
o Zylinder
v 0.050885 -0.000000 -0.051601
v 0.054905 0.000000 0.051601
v 0.025442 -0.044067 -0.051601
v 0.027452 -0.047549 0.051601
v -0.025442 -0.044067 -0.051601
v -0.027452 -0.047549 0.051601
v -0.050885 -0.000000 -0.051601
v -0.054905 0.000000 0.051601
v -0.025442 0.044067 -0.051601
v -0.027452 0.047549 0.051601
v 0.025442 0.044067 -0.051601
v 0.027452 0.047549 0.051601
v 0.031099 -0.053865 0.051601
v 0.062198 0.000000 0.051601
v -0.031099 -0.053865 0.051601
v -0.062198 0.000000 0.051601
v -0.031099 0.053865 0.051601
v 0.031099 0.053865 0.051601
v 0.062198 -0.000000 -0.051601
v 0.031099 -0.053865 -0.051601
v -0.031099 -0.053865 -0.051601
v -0.062198 -0.000000 -0.051601
v -0.031099 0.053865 -0.051601
v 0.031099 0.053865 -0.051601
v 0.050885 -0.000000 -0.058331
v 0.025442 -0.044067 -0.058331
v -0.025442 -0.044067 -0.058331
v -0.050885 -0.000000 -0.058331
v -0.025442 0.044067 -0.058331
v 0.025442 0.044067 -0.058331
v 0.061517 -0.000000 -0.058331
v 0.030759 -0.053276 -0.058331
v -0.030759 -0.053276 -0.058331
v -0.061517 -0.000000 -0.058331
v -0.030759 0.053276 -0.058331
v 0.030759 0.053276 -0.058331
v 0.061517 -0.000000 -0.068414
v 0.030759 -0.053276 -0.068414
v -0.030759 -0.053276 -0.068414
v -0.061517 -0.000000 -0.068414
v -0.030759 0.053276 -0.068414
v 0.030759 0.053276 -0.068414
v 0.027452 -0.047549 0.053765
v 0.054905 0.000000 0.053765
v -0.027452 -0.047549 0.053765
v -0.054905 0.000000 0.053765
v -0.027452 0.047549 0.053765
v 0.027452 0.047549 0.053765
v 0.030244 -0.052384 0.055465
v 0.060488 0.000000 0.055465
v -0.030244 -0.052384 0.055465
v -0.060488 0.000000 0.055465
v -0.030244 0.052384 0.055465
v 0.030244 0.052384 0.055465
v 0.031010 0.000000 0.161522
v 0.015505 -0.026855 0.161522
v 0.052589 0.000000 0.131988
v 0.060488 0.000000 0.091644
v 0.030244 -0.052384 0.091644
v 0.026295 -0.045544 0.131988
v 0.030244 -0.052384 0.086354
v 0.060488 0.000000 0.086354
v -0.030244 -0.052384 0.086354
v -0.060488 0.000000 0.086354
v -0.030244 0.052384 0.086354
v 0.030244 0.052384 0.086354
v 0.000766 -0.001327 0.172332
v 0.001532 0.000000 0.172332
v -0.026295 -0.045544 0.131988
v -0.030244 -0.052384 0.091644
v -0.015505 -0.026855 0.161522
v -0.000766 -0.001327 0.172332
v -0.052589 0.000000 0.131988
v -0.060488 0.000000 0.091644
v -0.031010 0.000000 0.161522
v -0.001532 0.000000 0.172332
v -0.026295 0.045544 0.131988
v -0.030244 0.052384 0.091644
v -0.015505 0.026855 0.161522
v -0.000766 0.001327 0.172332
v 0.026295 0.045544 0.131988
v 0.030244 0.052384 0.091644
v 0.015505 0.026855 0.161522
v 0.000766 0.001327 0.172332
vn 0.8660 -0.5000 -0.0000
vn -0.0000 -1.0000 -0.0000
vn -0.8660 -0.5000 -0.0000
vn -0.8660 0.5000 -0.0000
vn -0.0000 1.0000 -0.0000
vn 0.8660 0.5000 -0.0000
vn -0.0000 -0.0000 1.0000
vn -0.0000 -0.0000 -1.0000
vn -0.2872 0.1658 -0.9434
vn -0.0000 -0.3317 -0.9434
vn -0.0000 0.3317 -0.9434
vn -0.2873 -0.1658 -0.9434
vn 0.2872 -0.1658 -0.9434
vn 0.2873 0.1658 -0.9434
vn 0.8538 -0.4930 0.1672
vn 0.7318 -0.4225 0.5347
vn 0.3377 -0.1950 0.9208
vn -0.0000 -0.9859 0.1672
vn -0.0000 -0.8450 0.5347
vn -0.0000 -0.3899 0.9208
vn -0.8538 -0.4930 0.1672
vn -0.7318 -0.4225 0.5347
vn -0.3377 -0.1949 0.9209
vn -0.8538 0.4930 0.1672
vn -0.7318 0.4225 0.5347
vn -0.3377 0.1950 0.9208
vn -0.0000 0.9859 0.1672
vn -0.0000 0.8450 0.5347
vn -0.0000 0.3899 0.9208
vn 0.8538 0.4930 0.1672
vn 0.7318 0.4225 0.5347
vn 0.3377 0.1949 0.9209
vn -0.2873 0.1658 -0.9434
vn -0.2872 -0.1658 -0.9434
vn 0.2873 -0.1658 -0.9434
vn 0.2872 0.1658 -0.9434
vn 0.3377 -0.1949 0.9209
vn -0.3377 -0.1950 0.9208
vn -0.3377 0.1949 0.9209
vn 0.3377 0.1950 0.9208
vt 0.750000 0.446347
vt 0.250000 0.461859
vt 0.920042 0.348174
vt 0.433475 0.355929
vt 0.920042 0.151826
vt 0.433475 0.144071
vt 0.750000 0.053653
vt 0.250000 0.038141
vt 0.579958 0.151827
vt 0.066525 0.144071
vt 0.579958 0.348173
vt 0.066525 0.355929
vt 0.833333 1.000000
vt 0.457846 0.370000
vt 1.000000 1.000000
vt -0.000000 1.000000
vt 0.250000 0.490000
vt 0.666667 1.000000
vt 0.457846 0.130000
vt 0.500000 1.000000
vt 0.250000 0.010000
vt 0.333333 1.000000
vt 0.042154 0.130000
vt 0.166667 1.000000
vt 0.042154 0.370000
vt 1.000000 0.500000
vt -0.000000 0.500000
vt 0.750000 0.490000
vt 0.833333 0.500000
vt 0.957846 0.370000
vt 0.666667 0.500000
vt 0.957846 0.130000
vt 0.500000 0.500000
vt 0.750000 0.010000
vt 0.333333 0.500000
vt 0.542154 0.130000
vt 0.166667 0.500000
vt 0.542154 0.370000
vt 0.750000 0.446347
vt 0.920042 0.348174
vt 0.920042 0.151826
vt 0.750000 0.053653
vt 0.579958 0.151827
vt 0.579958 0.348173
vt 0.750000 0.446347
vt 0.920042 0.348174
vt 0.920042 0.151826
vt 0.750000 0.053653
vt 0.579958 0.151827
vt 0.579958 0.348173
vt 0.750000 0.446347
vt 0.920042 0.348174
vt 0.920042 0.151826
vt 0.750000 0.053653
vt 0.579958 0.151827
vt 0.579958 0.348173
vt 0.433475 0.355929
vt 0.250000 0.461859
vt 0.433475 0.144071
vt 0.250000 0.038141
vt 0.066525 0.144071
vt 0.066525 0.355929
vt 0.433475 0.355929
vt 0.250000 0.461859
vt 0.433475 0.144071
vt 0.250000 0.038141
vt 0.066525 0.144071
vt 0.066525 0.355929
vt 0.250000 0.358612
vt 0.344061 0.304306
vt 0.250000 0.454943
vt 0.250000 0.461859
vt 0.433475 0.355929
vt 0.427486 0.352471
vt 0.433475 0.355929
vt 0.250000 0.461859
vt 0.433475 0.144071
vt 0.250000 0.038141
vt 0.066525 0.144071
vt 0.066525 0.355929
vt 0.254647 0.252683
vt 0.250000 0.255366
vt 0.427486 0.147529
vt 0.433475 0.144071
vt 0.344061 0.195694
vt 0.254647 0.247317
vt 0.250000 0.045057
vt 0.250000 0.038141
vt 0.250000 0.141388
vt 0.250000 0.244634
vt 0.072514 0.147529
vt 0.066525 0.144071
vt 0.155939 0.195694
vt 0.245353 0.247317
vt 0.072514 0.352471
vt 0.066525 0.355929
vt 0.155939 0.304306
vt 0.245353 0.252683
s 0
usemtl Gold
f 14/15/1 20/29/1 19/26/1
f 13/13/2 21/31/2 20/29/2
f 15/18/3 22/33/3 21/31/3
f 16/20/4 23/35/4 22/33/4
f 10/10/5 48/62/5 12/12/5
f 17/22/5 24/37/5 23/35/5
f 18/24/6 19/27/6 24/37/6
f 1/1/6 30/44/6 11/11/6
f 2/2/7 13/14/7 14/17/7
f 6/6/7 13/14/7 4/4/7
f 8/8/7 15/19/7 6/6/7
f 8/8/7 17/23/7 16/21/7
f 12/12/7 17/23/7 10/10/7
f 2/2/7 18/25/7 12/12/7
f 1/1/8 20/30/8 3/3/8
f 3/3/8 21/32/8 5/5/8
f 7/7/8 21/32/8 22/34/8
f 7/7/8 23/36/8 9/9/8
f 9/9/8 24/38/8 11/11/8
f 1/1/8 24/38/8 19/28/8
f 30/44/7 35/49/7 29/43/7
f 9/9/4 28/42/4 7/7/4
f 5/5/2 26/40/2 3/3/2
f 11/11/5 29/43/5 9/9/5
f 7/7/3 27/41/3 5/5/3
f 3/3/1 25/39/1 1/1/1
f 31/45/6 42/56/6 36/50/6
f 28/42/7 33/47/7 27/41/7
f 25/39/7 32/46/7 31/45/7
f 25/39/7 36/50/7 30/44/7
f 28/42/7 35/49/7 34/48/7
f 27/41/7 32/46/7 26/40/7
f 40/54/8 41/55/8 42/56/8
f 35/49/4 40/54/4 34/48/4
f 33/47/2 38/52/2 32/46/2
f 36/50/5 41/55/5 35/49/5
f 34/48/3 39/53/3 33/47/3
f 32/46/1 37/51/1 31/45/1
f 6/6/3 46/60/3 8/8/3
f 2/2/1 43/57/1 4/4/1
f 12/12/6 44/58/6 2/2/6
f 8/8/4 47/61/4 10/10/4
f 4/4/2 45/59/2 6/6/2
f 14/15/1 13/13/1 20/29/1
f 13/13/2 15/18/2 21/31/2
f 15/18/3 16/20/3 22/33/3
f 16/20/4 17/22/4 23/35/4
f 10/10/5 47/61/5 48/62/5
f 17/22/5 18/24/5 24/37/5
f 18/24/6 14/16/6 19/27/6
f 1/1/6 25/39/6 30/44/6
f 2/2/7 4/4/7 13/14/7
f 6/6/7 15/19/7 13/14/7
f 8/8/7 16/21/7 15/19/7
f 8/8/7 10/10/7 17/23/7
f 12/12/7 18/25/7 17/23/7
f 2/2/7 14/17/7 18/25/7
f 1/1/8 19/28/8 20/30/8
f 3/3/8 20/30/8 21/32/8
f 7/7/8 5/5/8 21/32/8
f 7/7/8 22/34/8 23/36/8
f 9/9/8 23/36/8 24/38/8
f 1/1/8 11/11/8 24/38/8
f 30/44/7 36/50/7 35/49/7
f 9/9/4 29/43/4 28/42/4
f 5/5/2 27/41/2 26/40/2
f 11/11/5 30/44/5 29/43/5
f 7/7/3 28/42/3 27/41/3
f 3/3/1 26/40/1 25/39/1
f 31/45/6 37/51/6 42/56/6
f 28/42/7 34/48/7 33/47/7
f 25/39/7 26/40/7 32/46/7
f 25/39/7 31/45/7 36/50/7
f 28/42/7 29/43/7 35/49/7
f 27/41/7 33/47/7 32/46/7
f 42/56/8 37/51/8 40/54/8
f 37/51/8 38/52/8 40/54/8
f 38/52/8 39/53/8 40/54/8
f 35/49/4 41/55/4 40/54/4
f 33/47/2 39/53/2 38/52/2
f 36/50/5 42/56/5 41/55/5
f 34/48/3 40/54/3 39/53/3
f 32/46/1 38/52/1 37/51/1
f 6/6/3 45/59/3 46/60/3
f 2/2/1 44/58/1 43/57/1
f 12/12/6 48/62/6 44/58/6
f 8/8/4 46/60/4 47/61/4
f 4/4/2 43/57/2 45/59/2
usemtl Red_Metal
f 46/60/9 53/67/9 47/61/9
f 52/66/4 65/79/4 53/67/4
f 43/57/10 51/65/10 45/59/10
f 47/61/11 54/68/11 48/62/11
f 46/60/12 51/65/12 52/66/12
f 44/58/13 49/63/13 43/57/13
f 44/58/14 54/68/14 50/64/14
f 49/63/2 63/77/2 51/65/2
f 51/65/3 64/78/3 52/66/3
f 53/67/5 66/80/5 54/68/5
f 54/68/6 62/76/6 50/64/6
f 76/90/7 72/86/7 68/82/7
f 61/75/2 70/84/2 63/77/2
f 65/79/5 82/96/5 66/80/5
f 62/76/1 59/73/1 61/75/1
f 64/78/4 78/92/4 65/79/4
f 66/80/6 58/72/6 62/76/6
f 63/77/3 74/88/3 64/78/3
f 50/64/1 61/75/1 49/63/1
f 59/73/15 57/71/15 60/74/15
f 57/71/16 56/70/16 60/74/16
f 55/69/17 67/81/17 56/70/17
f 59/73/18 69/83/18 70/84/18
f 60/74/19 71/85/19 69/83/19
f 56/70/20 72/86/20 71/85/20
f 70/84/21 73/87/21 74/88/21
f 73/87/22 71/85/22 75/89/22
f 75/89/23 72/86/23 76/90/23
f 78/92/24 73/87/24 77/91/24
f 73/87/25 79/93/25 77/91/25
f 75/89/26 80/94/26 79/93/26
f 78/92/27 81/95/27 82/96/27
f 77/91/28 83/97/28 81/95/28
f 79/93/29 84/98/29 83/97/29
f 82/96/30 57/71/30 58/72/30
f 57/71/31 83/97/31 55/69/31
f 55/69/32 84/98/32 68/82/32
f 46/60/33 52/66/33 53/67/33
f 52/66/4 64/78/4 65/79/4
f 43/57/10 49/63/10 51/65/10
f 47/61/11 53/67/11 54/68/11
f 46/60/34 45/59/34 51/65/34
f 44/58/35 50/64/35 49/63/35
f 44/58/36 48/62/36 54/68/36
f 49/63/2 61/75/2 63/77/2
f 51/65/3 63/77/3 64/78/3
f 53/67/5 65/79/5 66/80/5
f 54/68/6 66/80/6 62/76/6
f 72/86/7 67/81/7 68/82/7
f 68/82/7 84/98/7 80/94/7
f 80/94/7 76/90/7 68/82/7
f 61/75/2 59/73/2 70/84/2
f 65/79/5 78/92/5 82/96/5
f 62/76/1 58/72/1 59/73/1
f 64/78/4 74/88/4 78/92/4
f 66/80/6 82/96/6 58/72/6
f 63/77/3 70/84/3 74/88/3
f 50/64/1 62/76/1 61/75/1
f 59/73/15 58/72/15 57/71/15
f 57/71/16 55/69/16 56/70/16
f 55/69/37 68/82/37 67/81/37
f 59/73/18 60/74/18 69/83/18
f 60/74/19 56/70/19 71/85/19
f 56/70/20 67/81/20 72/86/20
f 70/84/21 69/83/21 73/87/21
f 73/87/22 69/83/22 71/85/22
f 75/89/38 71/85/38 72/86/38
f 78/92/24 74/88/24 73/87/24
f 73/87/25 75/89/25 79/93/25
f 75/89/39 76/90/39 80/94/39
f 78/92/27 77/91/27 81/95/27
f 77/91/28 79/93/28 83/97/28
f 79/93/29 80/94/29 84/98/29
f 82/96/30 81/95/30 57/71/30
f 57/71/31 81/95/31 83/97/31
f 55/69/40 83/97/40 84/98/40
