# Blender v3.4.1 OBJ File: 'enemy_cannae.blend'
# www.blender.org
o Cube
v 0.206605 0.828354 0.026992
v 0.343757 0.799270 0.555784
v 0.192782 0.889324 0.749710
v 0.427020 0.778322 0.515605
v 0.192782 0.889324 0.749710
v 0.427020 0.778322 0.515605
v 0.000000 0.922488 -0.533321
v 0.000000 0.978461 0.026992
v 0.000000 1.049024 0.555784
v -0.206605 0.828354 0.026992
v -0.343757 0.799270 0.555784
v 0.000000 0.585475 0.026992
v 0.000000 0.395159 0.555784
v 0.000000 0.671075 0.810771
v -0.192782 0.889324 0.749710
v 0.000000 1.024208 0.711972
v -0.427020 0.778322 0.515605
v 0.000000 1.112815 0.409888
v 0.000000 0.314741 0.561891
v 0.000000 0.671075 0.810771
v -0.192782 0.889324 0.749710
v 0.000000 1.024208 0.711972
v -0.427020 0.778322 0.515605
v 0.000000 1.112815 0.409888
v 0.000000 0.314741 0.561891
vt 0.785302 0.593249
vt 0.603184 0.625419
vt 0.613711 0.494156
vt 0.770967 0.507572
vt 0.590706 0.331644
vt 0.790331 0.392584
vt 0.546698 0.613217
vt 0.543650 0.526196
vt 0.981421 0.536785
vt 0.470310 0.831122
vt 0.582807 0.916800
vt 0.369684 0.982590
vt 0.376923 0.855337
vt 0.489698 0.433392
vt 0.506490 0.716224
vt 0.678596 0.679543
vt 0.880888 0.016405
vt 0.960148 0.120195
vt 0.759243 0.124990
vt 0.470310 0.831122
vt 0.376923 0.855337
vt 0.369684 0.982590
vt 0.582807 0.916800
vt 0.506490 0.716224
vt 0.678596 0.679543
vt 0.770967 0.507572
vt 0.613711 0.494156
vt 0.543650 0.526196
vt 0.470310 0.831122
vt 0.582807 0.916800
vt 0.880888 0.016405
vt 0.470310 0.831122
vt 0.582807 0.916800
vn 0.5844 0.8043 -0.1073
vn 0.7418 -0.6310 -0.2271
vn 0.5754 0.8121 0.0968
vn 0.7097 -0.6037 -0.3631
vn 0.5587 0.8022 0.2106
vn 0.5859 0.8064 -0.0806
vn 0.6305 -0.4841 0.6067
vn 0.5848 -0.4225 0.6925
vn -0.0000 0.2694 0.9630
vn -0.5587 -0.8022 -0.2106
vn -0.5848 0.4225 -0.6925
vn -0.5844 0.8043 -0.1073
vn -0.7418 -0.6310 -0.2271
vn -0.5754 0.8121 0.0968
vn -0.7097 -0.6037 -0.3631
vn -0.5587 0.8022 0.2106
vn -0.5859 0.8064 -0.0806
vn -0.6305 -0.4841 0.6067
vn -0.5848 -0.4225 0.6925
vn 0.5587 -0.8022 -0.2106
vn 0.5848 0.4225 -0.6925
usemtl Material
s off
f 8/1/1 9/2/1 2/3/1 1/4/1
f 1/4/2 2/3/2 13/5/2 12/6/2
f 2/3/3 9/2/3 16/7/3 3/8/3
f 1/4/4 12/6/4 7/9/4
f 3/10/5 4/11/5 18/12/5 16/13/5
f 8/1/6 1/4/6 7/9/6
f 13/5/7 2/3/7 3/8/7 14/14/7
f 14/15/8 19/16/8 4/11/8 3/10/8
f 3/17/9 16/18/9 14/19/9
f 5/20/10 22/21/10 24/22/10 6/23/10
f 20/24/11 5/20/11 6/23/11 25/25/11
f 8/1/12 10/26/12 11/27/12 9/2/12
f 10/26/13 12/6/13 13/5/13 11/27/13
f 11/27/14 15/28/14 16/7/14 9/2/14
f 10/26/15 7/9/15 12/6/15
f 15/29/16 16/13/16 18/12/16 17/30/16
f 8/1/17 7/9/17 10/26/17
f 13/5/18 14/14/18 15/28/18 11/27/18
f 14/15/19 15/29/19 17/30/19 19/16/19
f 15/31/9 14/19/9 16/18/9
f 21/32/20 23/33/20 24/22/20 22/21/20
f 20/24/21 25/25/21 23/33/21 21/32/21
o Cube.007
v -0.075134 0.867886 -0.228156
v -0.211628 0.555448 -0.437581
v 0.039173 0.669129 -0.221873
v -0.013956 0.798468 -0.427020
v -0.084802 0.426494 -0.463022
v -0.086599 0.555448 -0.469962
v -0.201165 0.669129 -0.159630
v -0.254295 0.798468 -0.364777
v -0.209831 0.426494 -0.430642
v -0.255274 0.513669 -0.691162
v -0.171530 0.513669 -0.712850
v -0.256478 0.600043 -0.695811
v -0.172734 0.600043 -0.717499
v -0.220098 0.555505 -0.727862
vt 0.118105 0.725284
vt 0.093100 0.857988
vt 0.165275 0.855064
vt 0.178544 0.767495
vt 0.217668 0.775453
vt 0.211309 0.879679
vt 0.256827 0.901878
vt 0.309515 0.756462
vt 0.021376 0.723715
vt 0.045407 0.893156
vt 0.154890 0.941918
vt 0.171172 0.946964
vt 0.074453 0.651803
vt 0.210336 0.697847
vt 0.139649 0.945247
vt 0.181734 0.975453
vt 0.122547 0.968979
vt 0.153630 0.962910
vn -0.2435 0.2389 -0.9400
vn 0.1695 -0.7369 0.6544
vn -0.9867 -0.1342 0.0920
vn 0.9073 -0.1342 -0.3985
vn -0.9854 -0.0046 0.1704
vn 0.8620 0.4986 0.0911
vn -0.6247 0.5774 0.5258
vn 0.2470 0.1722 0.9536
vn -0.0915 0.9311 -0.3532
vn 0.0422 0.9857 0.1629
vn -0.0787 -0.9494 -0.3040
vn 0.9442 -0.0046 -0.3294
vn 0.2567 -0.0484 -0.9653
vn -0.2113 -0.5381 -0.8160
vn -0.2250 0.4414 -0.8687
vn -0.6930 -0.0484 -0.7193
f 29/34/22 31/35/22 27/36/22 33/37/22
f 32/38/23 34/39/23 30/40/23 28/41/23
f 33/37/24 27/36/24 34/39/24 32/38/24
f 28/42/25 30/43/25 31/35/25 29/34/25
f 27/36/26 37/44/26 35/45/26 34/39/26
f 26/46/27 28/42/27 29/34/27
f 33/37/28 32/38/28 26/47/28
f 26/47/29 32/38/29 28/41/29
f 26/47/30 29/34/30 33/37/30
f 31/35/31 38/48/31 37/44/31 27/36/31
f 34/39/32 35/45/32 36/49/32 30/40/32
f 30/43/33 36/50/33 38/48/33 31/35/33
f 36/50/34 39/51/34 38/48/34
f 35/45/35 39/51/35 36/49/35
f 38/48/36 39/51/36 37/44/36
f 37/44/37 39/51/37 35/45/37
v -0.265122 0.471068 -0.738773
v -0.156693 0.513224 -0.638874
v -0.156693 0.471068 -0.738773
v -0.265122 0.513224 -0.638874
v -0.251932 0.066167 -0.454903
v -0.169883 0.066167 -0.454903
v -0.251932 0.003383 -0.522776
v -0.169883 0.003383 -0.522776
v -0.317177 0.081296 -0.310564
v -0.104638 0.081296 -0.310564
v -0.317177 -0.000731 -0.312417
v -0.104638 -0.000731 -0.312417
v -0.260512 -0.000731 -0.251191
v -0.161303 -0.000731 -0.251191
v -0.210907 0.562589 -0.718550
vt 0.586565 0.190277
vt 0.641508 0.141249
vt 0.573068 0.151221
vt 0.364512 0.184541
vt 0.394799 0.227566
vt 0.608459 0.052428
vt 0.324847 0.086949
vt 0.331086 0.136564
vt 0.574979 0.109400
vt 0.218321 0.074577
vt 0.221797 0.160860
vt 0.405732 0.278978
vt 0.636725 0.238704
vt 0.067623 0.155381
vt 0.144248 0.179010
vt 0.131067 0.072719
vt 0.062534 0.114348
vt 0.291563 0.044107
vt 0.206468 0.038032
vt 0.213043 0.197267
vt 0.299826 0.184826
vt 0.185222 0.094777
vt 0.191374 0.144392
vn 0.0000 0.8501 0.5267
vn 0.0000 0.3806 0.9248
vn 0.0000 -0.4193 -0.9079
vn 0.0000 -0.9998 -0.0196
vn 0.9996 -0.0226 0.0142
vn -0.9996 -0.0226 0.0142
vn 0.0000 0.9946 -0.1042
vn 0.9238 0.1661 -0.3450
vn -0.9238 0.1661 -0.3450
vn 0.0000 -1.0000 -0.0000
vn -0.7338 -0.0153 0.6792
vn 0.0000 0.5863 0.8101
vn 0.7338 -0.0153 0.6792
vn 0.0000 0.2158 -0.9764
vn 0.8157 0.5329 -0.2249
vn -0.8157 0.5329 -0.2249
usemtl Material
s off
f 41/52/38 54/53/38 43/54/38
f 43/54/39 44/55/39 45/56/39 41/52/39
f 42/57/40 47/58/40 46/59/40 40/60/40
f 47/58/41 51/61/41 50/62/41 46/59/41
f 41/52/42 45/56/42 47/63/42 42/64/42
f 40/60/43 46/59/43 44/55/43 43/54/43
f 44/65/44 48/66/44 49/67/44 45/68/44
f 45/69/45 49/70/45 51/61/45 47/58/45
f 46/59/46 50/62/46 48/71/46 44/72/46
f 51/61/47 53/73/47 52/74/47 50/62/47
f 50/62/48 52/74/48 48/71/48
f 48/66/49 52/74/49 53/73/49 49/67/49
f 49/70/50 53/73/50 51/61/50
f 40/60/51 54/53/51 42/57/51
f 42/64/52 54/53/52 41/52/52
f 43/54/53 54/53/53 40/60/53
o Cube.003
v 0.075134 0.867886 -0.228156
v 0.211628 0.555448 -0.437581
v -0.039173 0.669129 -0.221873
v 0.013956 0.798468 -0.427020
v 0.084802 0.426494 -0.463022
v 0.086599 0.555448 -0.469962
v 0.201165 0.669129 -0.159630
v 0.254295 0.798468 -0.364777
v 0.209831 0.426494 -0.430642
v 0.255274 0.513669 -0.691162
v 0.171530 0.513669 -0.712850
v 0.256478 0.600043 -0.695811
v 0.172734 0.600043 -0.717499
v 0.220098 0.555505 -0.727862
vt 0.118105 0.725284
vt 0.178544 0.767495
vt 0.165275 0.855064
vt 0.093100 0.857988
vt 0.217668 0.775453
vt 0.309515 0.756462
vt 0.256827 0.901878
vt 0.211309 0.879679
vt 0.021376 0.723715
vt 0.045407 0.893156
vt 0.171172 0.946964
vt 0.154890 0.941918
vt 0.074453 0.651803
vt 0.210336 0.697847
vt 0.139649 0.945247
vt 0.181734 0.975453
vt 0.122547 0.968979
vt 0.153630 0.962910
vn 0.2435 0.2389 -0.9400
vn -0.1695 -0.7369 0.6544
vn 0.9867 -0.1342 0.0920
vn -0.9073 -0.1342 -0.3985
vn 0.9854 -0.0046 0.1704
vn -0.8620 0.4986 0.0911
vn 0.6247 0.5774 0.5258
vn -0.2470 0.1722 0.9536
vn 0.0915 0.9311 -0.3532
vn -0.0422 0.9857 0.1629
vn 0.0787 -0.9494 -0.3040
vn -0.9442 -0.0046 -0.3294
vn -0.2567 -0.0484 -0.9653
vn 0.2113 -0.5381 -0.8160
vn 0.2250 0.4414 -0.8687
vn 0.6930 -0.0484 -0.7193
usemtl Material
s off
f 58/75/54 62/76/54 56/77/54 60/78/54
f 61/79/55 57/80/55 59/81/55 63/82/55
f 62/76/56 61/79/56 63/82/56 56/77/56
f 57/83/57 58/75/57 60/78/57 59/84/57
f 56/77/58 63/82/58 64/85/58 66/86/58
f 55/87/59 58/75/59 57/83/59
f 62/76/60 55/88/60 61/79/60
f 55/88/61 57/80/61 61/79/61
f 55/88/62 62/76/62 58/75/62
f 60/78/63 56/77/63 66/86/63 67/89/63
f 63/82/64 59/81/64 65/90/64 64/85/64
f 59/84/65 60/78/65 67/89/65 65/91/65
f 65/91/66 67/89/66 68/92/66
f 64/85/67 65/90/67 68/92/67
f 67/89/68 66/86/68 68/92/68
f 66/86/69 64/85/69 68/92/69
o Cube.005
v 0.265122 0.471068 -0.738773
v 0.156693 0.513224 -0.638874
v 0.156693 0.471068 -0.738773
v 0.265122 0.513224 -0.638874
v 0.251932 0.066167 -0.454903
v 0.169883 0.066167 -0.454903
v 0.251932 0.003383 -0.522776
v 0.169883 0.003383 -0.522776
v 0.317177 0.081296 -0.310564
v 0.104638 0.081296 -0.310564
v 0.317177 -0.000731 -0.312417
v 0.104638 -0.000731 -0.312417
v 0.260512 -0.000731 -0.251191
v 0.161303 -0.000731 -0.251191
v 0.210907 0.562589 -0.718550
vt 0.586565 0.190277
vt 0.573068 0.151221
vt 0.641508 0.141249
vt 0.394799 0.227566
vt 0.364512 0.184541
vt 0.608459 0.052428
vt 0.574979 0.109400
vt 0.331086 0.136564
vt 0.324847 0.086949
vt 0.221797 0.160860
vt 0.218321 0.074577
vt 0.636725 0.238704
vt 0.405732 0.278978
vt 0.067623 0.155381
vt 0.062534 0.114348
vt 0.131067 0.072719
vt 0.144248 0.179010
vt 0.291563 0.044107
vt 0.206468 0.038032
vt 0.299826 0.184826
vt 0.213043 0.197267
vt 0.191374 0.144392
vt 0.185222 0.094777
vn 0.0000 0.8501 0.5267
vn 0.0000 0.3806 0.9248
vn 0.0000 -0.4193 -0.9079
vn 0.0000 -0.9998 -0.0196
vn -0.9996 -0.0226 0.0142
vn 0.9996 -0.0226 0.0142
vn 0.0000 0.9946 -0.1042
vn -0.9238 0.1661 -0.3450
vn 0.9238 0.1661 -0.3450
vn 0.0000 -1.0000 0.0000
vn 0.7338 -0.0153 0.6792
vn 0.0000 0.5863 0.8101
vn -0.7338 -0.0153 0.6792
vn 0.0000 0.2158 -0.9764
vn -0.8157 0.5329 -0.2249
vn 0.8157 0.5329 -0.2249
usemtl Material
s off
f 70/93/70 72/94/70 83/95/70
f 72/94/71 70/93/71 74/96/71 73/97/71
f 71/98/72 69/99/72 75/100/72 76/101/72
f 76/101/73 75/100/73 79/102/73 80/103/73
f 70/93/74 71/104/74 76/105/74 74/96/74
f 69/99/75 72/94/75 73/97/75 75/100/75
f 73/106/76 74/107/76 78/108/76 77/109/76
f 74/110/77 76/101/77 80/103/77 78/111/77
f 75/100/78 73/112/78 77/113/78 79/102/78
f 80/103/79 79/102/79 81/114/79 82/115/79
f 79/102/80 77/113/80 81/114/80
f 77/109/81 78/108/81 82/115/81 81/114/81
f 78/111/82 80/103/82 82/115/82
f 69/99/83 71/98/83 83/95/83
f 71/104/84 70/93/84 83/95/84
f 72/94/85 69/99/85 83/95/85
o Cube.010
v -0.299854 0.799986 0.511927
v -0.340878 0.341822 0.144693
v -0.186139 0.548275 0.475915
v -0.186139 0.677769 0.288951
v -0.258830 0.295105 0.212143
v -0.258830 0.341822 0.144693
v -0.413568 0.548275 0.475915
v -0.413568 0.677769 0.288951
v -0.340878 0.295105 0.212143
v -0.299854 0.288753 0.157841
vt 0.900378 0.357918
vt 0.933679 0.220509
vt 0.911668 0.210061
vt 0.854195 0.276817
vt 0.820730 0.231256
vt 0.901711 0.189317
vt 0.911552 0.156734
vt 0.748561 0.156734
vt 0.995508 0.360566
vt 0.969359 0.206790
vt 0.944982 0.465601
vt 0.745789 0.322927
vt 0.932091 0.189117
vn 0.0000 0.3946 -0.9189
vn 0.0000 -0.7215 0.6925
vn -0.9800 -0.1634 -0.1132
vn 0.9800 -0.1634 -0.1132
vn 0.8944 0.3676 0.2546
vn -0.8944 0.3676 0.2546
vn 0.0000 -0.1416 0.9899
vn 0.0000 0.8769 -0.4807
vn 0.0000 -0.2405 -0.9707
vn 0.0000 -0.9932 0.1162
vn 0.6610 -0.6168 -0.4272
vn -0.6610 -0.6168 -0.4272
usemtl Material
s off
f 87/116/86 89/117/86 85/118/86 91/119/86
f 90/120/87 92/121/87 88/122/87 86/123/87
f 91/119/88 85/118/88 92/121/88 90/120/88
f 86/124/89 88/125/89 89/117/89 87/116/89
f 84/126/90 86/124/90 87/116/90
f 91/119/91 90/120/91 84/127/91
f 84/127/92 90/120/92 86/123/92
f 84/127/93 87/116/93 91/119/93
f 89/117/94 93/128/94 85/118/94
f 92/121/95 93/128/95 88/122/95
f 88/125/96 93/128/96 89/117/96
f 85/118/97 93/128/97 92/121/97
o Cube.009
v -0.340878 0.298807 0.116181
v -0.258830 0.330707 0.191774
v -0.258830 0.298807 0.116181
v -0.340878 0.330707 0.191774
v -0.340878 0.062965 0.310070
v -0.258830 0.062965 0.310070
v -0.340878 0.000181 0.242197
v -0.258830 0.000181 0.242197
v -0.406124 0.078094 0.454409
v -0.193584 0.078094 0.454409
v -0.406124 -0.003933 0.452556
v -0.193584 -0.003933 0.452556
v -0.349458 -0.003933 0.513782
v -0.250249 -0.003933 0.513782
v -0.299854 0.341491 0.142696
vt 0.569159 0.113562
vt 0.643886 0.142824
vt 0.610385 0.051907
vt 0.332987 0.083325
vt 0.221598 0.070294
vt 0.225145 0.160514
vt 0.339470 0.135217
vt 0.562544 0.151833
vt 0.370856 0.184229
vt 0.393076 0.228930
vt 0.578537 0.188571
vt 0.404244 0.278111
vt 0.625644 0.242925
vt 0.063986 0.154655
vt 0.144075 0.179419
vt 0.130379 0.068287
vt 0.058699 0.111754
vt 0.298215 0.038494
vt 0.209234 0.032071
vt 0.215953 0.198567
vt 0.306699 0.185642
vt 0.186977 0.091391
vt 0.193370 0.143264
vn 0.0000 0.5277 -0.8494
vn 0.0000 -0.9998 -0.0196
vn 0.0000 -0.3888 -0.9213
vn 0.0000 0.4041 0.9147
vn 1.0000 0.0000 0.0000
vn -1.0000 0.0000 0.0000
vn 0.0000 0.9946 -0.1042
vn 0.9238 0.1661 -0.3450
vn -0.9238 0.1661 -0.3450
vn 0.0000 -1.0000 -0.0000
vn -0.7338 -0.0153 0.6792
vn 0.0000 0.5863 0.8101
vn 0.7338 -0.0153 0.6792
vn -0.5775 0.7522 -0.3174
vn 0.5775 0.7522 -0.3174
vn 0.0000 0.9767 0.2146
usemtl Material
s off
f 94/129/98 108/130/98 96/131/98
f 101/132/99 105/133/99 104/134/99 100/135/99
f 96/131/100 101/132/100 100/135/100 94/129/100
f 97/136/101 98/137/101 99/138/101 95/139/101
f 95/139/102 99/138/102 101/140/102 96/141/102
f 94/129/103 100/135/103 98/137/103 97/136/103
f 98/142/104 102/143/104 103/144/104 99/145/104
f 99/146/105 103/147/105 105/133/105 101/132/105
f 100/135/106 104/134/106 102/148/106 98/149/106
f 105/133/107 107/150/107 106/151/107 104/134/107
f 104/134/108 106/151/108 102/148/108
f 102/143/109 106/151/109 107/150/109 103/144/109
f 103/147/110 107/150/110 105/133/110
f 97/136/111 108/130/111 94/129/111
f 96/141/112 108/130/112 95/139/112
f 95/139/113 108/130/113 97/136/113
o Cube.011
v 0.299854 0.800021 0.511927
v 0.340878 0.341857 0.144693
v 0.186139 0.548311 0.475915
v 0.186139 0.677804 0.288951
v 0.258830 0.295140 0.212143
v 0.258830 0.341857 0.144693
v 0.413568 0.548311 0.475915
v 0.413568 0.677804 0.288951
v 0.340878 0.295140 0.212143
v 0.299854 0.288788 0.157841
v 0.299854 0.800021 0.511927
v 0.413568 0.548311 0.475915
v 0.413568 0.677804 0.288951
vt 0.900378 0.357918
vt 0.854195 0.276817
vt 0.911668 0.210061
vt 0.933679 0.220509
vt 0.820730 0.231256
vt 0.748561 0.156734
vt 0.911552 0.156734
vt 0.901711 0.189317
vt 0.995508 0.360566
vt 0.969359 0.206790
vt 0.944982 0.465601
vt 0.745789 0.322927
vt 0.932091 0.189117
vt 0.854195 0.276817
vt 0.745789 0.322927
vt 0.820730 0.231256
vn 0.0000 0.3946 -0.9189
vn 0.0000 -0.7215 0.6925
vn 0.9800 -0.1634 -0.1132
vn -0.9800 -0.1634 -0.1132
vn -0.8944 0.3676 0.2546
vn 0.0000 -0.1416 0.9899
vn 0.0000 0.8769 -0.4807
vn 0.0000 -0.2405 -0.9707
vn 0.0000 -0.9932 0.1162
vn -0.6610 -0.6168 -0.4272
vn 0.6610 -0.6168 -0.4272
vn 0.8944 0.3676 0.2546
usemtl Material
s off
f 112/152/114 116/153/114 110/154/114 114/155/114
f 115/156/115 111/157/115 113/158/115 117/159/115
f 116/153/116 115/156/116 117/159/116 110/154/116
f 111/160/117 112/152/117 114/155/117 113/161/117
f 109/162/118 112/152/118 111/160/118
f 109/163/119 111/157/119 115/156/119
f 109/163/120 116/153/120 112/152/120
f 114/155/121 110/154/121 118/164/121
f 117/159/122 113/158/122 118/164/122
f 113/161/123 114/155/123 118/164/123
f 110/154/124 117/159/124 118/164/124
f 121/165/125 119/166/125 120/167/125
o Cube.008
v 0.340878 0.298807 0.146181
v 0.258830 0.330707 0.221774
v 0.258830 0.298807 0.146181
v 0.340878 0.330707 0.221774
v 0.340878 0.062965 0.340070
v 0.258830 0.062965 0.340070
v 0.340878 0.000181 0.272197
v 0.258830 0.000181 0.272197
v 0.406124 0.078094 0.484409
v 0.193584 0.078094 0.484409
v 0.406124 -0.003933 0.482556
v 0.193584 -0.003933 0.482556
v 0.349458 -0.003933 0.543782
v 0.250249 -0.003933 0.543782
v 0.299854 0.341491 0.172696
vt 0.569159 0.113562
vt 0.610385 0.051907
vt 0.643886 0.142824
vt 0.332987 0.083325
vt 0.339470 0.135217
vt 0.225145 0.160514
vt 0.221598 0.070294
vt 0.562544 0.151833
vt 0.578537 0.188571
vt 0.393076 0.228930
vt 0.370856 0.184229
vt 0.625644 0.242925
vt 0.404244 0.278111
vt 0.063986 0.154655
vt 0.058699 0.111754
vt 0.130379 0.068287
vt 0.144075 0.179419
vt 0.298215 0.038494
vt 0.209234 0.032071
vt 0.306699 0.185642
vt 0.215953 0.198567
vt 0.193370 0.143264
vt 0.186977 0.091391
vn 0.0000 0.5277 -0.8494
vn 0.0000 -0.9998 -0.0196
vn 0.0000 -0.3888 -0.9213
vn 0.0000 0.4041 0.9147
vn -1.0000 0.0000 0.0000
vn 1.0000 0.0000 0.0000
vn 0.0000 0.9946 -0.1042
vn -0.9238 0.1661 -0.3450
vn 0.9238 0.1661 -0.3450
vn 0.0000 -1.0000 -0.0000
vn 0.7338 -0.0153 0.6792
vn 0.0000 0.5863 0.8101
vn -0.7338 -0.0153 0.6792
vn 0.5775 0.7522 -0.3174
vn -0.5775 0.7522 -0.3174
vn 0.0000 0.9767 0.2146
usemtl Material
s off
f 122/168/126 124/169/126 136/170/126
f 129/171/127 128/172/127 132/173/127 133/174/127
f 124/169/128 122/168/128 128/172/128 129/171/128
f 125/175/129 123/176/129 127/177/129 126/178/129
f 123/176/130 124/179/130 129/180/130 127/177/130
f 122/168/131 125/175/131 126/178/131 128/172/131
f 126/181/132 127/182/132 131/183/132 130/184/132
f 127/185/133 129/171/133 133/174/133 131/186/133
f 128/172/134 126/187/134 130/188/134 132/173/134
f 133/174/135 132/173/135 134/189/135 135/190/135
f 132/173/136 130/188/136 134/189/136
f 130/184/137 131/183/137 135/190/137 134/189/137
f 131/186/138 133/174/138 135/190/138
f 125/175/139 122/168/139 136/170/139
f 124/179/140 123/176/140 136/170/140
f 123/176/141 125/175/141 136/170/141
o Cube.002
v 0.084045 1.021160 0.921145
v 0.054731 0.956697 1.217704
v 0.054731 0.766022 1.261400
v 0.040054 0.624310 1.154068
v 0.129628 0.660941 0.822203
v 0.073956 0.716246 1.521392
v 0.040054 0.556967 1.373326
v 0.229772 0.845296 0.887476
v 0.199281 1.105887 0.849072
v 0.084045 1.021160 0.921145
v 0.229772 0.845296 0.887476
v 0.199281 1.105887 0.849072
v -0.084045 1.021160 0.921145
v -0.054731 0.956697 1.217704
v -0.054731 0.766022 1.261400
v 0.000000 1.021160 0.921145
v -0.040054 0.624310 1.154068
v -0.129628 0.660941 0.822203
v 0.000000 0.660941 0.822203
v -0.073956 0.716246 1.521392
v -0.040054 0.556967 1.373326
v -0.229772 0.845296 0.887476
v 0.000000 0.899582 0.680302
v -0.199281 1.105887 0.849072
v 0.000000 0.766022 1.261400
v 0.000000 0.956697 1.217704
v 0.000000 0.624310 1.154068
v 0.000000 0.716246 1.521392
v 0.000000 0.556967 1.373326
v -0.084045 1.021160 0.921145
v -0.229772 0.845296 0.887476
v -0.199281 1.105887 0.849072
vt 0.173818 0.366754
vt 0.178301 0.384934
vt 0.076931 0.395629
vt 0.069660 0.381488
vt 0.145149 0.487319
vt 0.053761 0.440159
vt 0.371813 0.459026
vt 0.339594 0.365308
vt 0.218251 0.559220
vt 0.354912 0.584614
vt 0.333892 0.309729
vt 0.469852 0.333817
vt 0.451015 0.504110
vt 0.481942 0.668118
vt 0.346548 0.829990
vt 0.320760 0.650575
vt 0.422290 0.691543
vt 0.129092 0.510186
vt 0.015078 0.449800
vt 0.341284 0.626959
vt 0.205625 0.579493
vt 0.346548 0.829990
vt 0.422290 0.691543
vt 0.320760 0.650575
vt 0.076931 0.395629
vt 0.178301 0.384934
vt 0.053761 0.440159
vt 0.145149 0.487319
vt 0.371813 0.459026
vt 0.339594 0.365308
vt 0.218251 0.559220
vt 0.354912 0.584614
vt 0.451015 0.504110
vt 0.346548 0.829990
vt 0.422290 0.691543
vt 0.320760 0.650575
vt 0.346548 0.829990
vt 0.320760 0.650575
vt 0.422290 0.691543
vn 0.0000 -0.9559 -0.2936
vn 0.9924 -0.1047 -0.0654
vn 0.8633 -0.4373 0.2519
vn 0.8927 0.1007 0.4392
vn 0.7724 0.6005 0.2069
vn 0.0000 -0.5111 -0.8595
vn 0.6551 -0.0902 -0.7502
vn 0.6081 0.6028 -0.5165
vn 0.4228 0.1804 0.8881
vn 0.0000 0.9822 0.1880
vn 0.0000 0.9772 0.2124
vn 0.0000 -0.6809 0.7324
vn 0.0000 0.8927 -0.4506
vn 0.0000 0.2234 0.9747
vn 0.0000 -0.9940 -0.1097
vn -0.4228 -0.1804 -0.8881
vn -0.9924 -0.1047 -0.0654
vn -0.8633 -0.4373 0.2519
vn -0.8927 0.1007 0.4392
vn -0.7724 0.6005 0.2069
vn -0.6551 -0.0902 -0.7502
vn -0.6081 0.6028 -0.5165
vn -0.4228 0.1804 0.8881
vn 0.4228 -0.1804 -0.8881
usemtl Material
s off
f 163/191/142 140/192/142 143/193/142 165/194/142
f 140/192/143 139/195/143 142/196/143 143/193/143
f 144/197/144 139/195/144 140/192/144 141/198/144
f 138/199/145 139/195/145 144/197/145
f 138/199/146 144/197/146 137/200/146
f 141/198/147 155/201/147 159/202/147
f 144/197/148 141/198/148 159/202/148
f 137/200/149 144/203/149 159/204/149
f 144/205/150 145/206/150 137/207/150
f 139/195/151 161/208/151 164/209/151 142/196/151
f 138/199/152 137/200/152 152/210/152 162/211/152
f 142/196/153 164/209/153 165/194/153 143/193/153
f 152/210/154 137/200/154 159/204/154
f 138/199/155 162/211/155 161/208/155 139/195/155
f 163/191/156 155/201/156 141/198/156 140/192/156
f 147/212/157 146/213/157 148/214/157
f 163/191/142 165/194/142 157/215/142 153/216/142
f 153/216/158 157/215/158 156/217/158 151/218/158
f 158/219/159 154/220/159 153/216/159 151/218/159
f 150/221/160 158/219/160 151/218/160
f 150/221/161 149/222/161 158/219/161
f 154/220/147 159/202/147 155/201/147
f 158/219/162 159/202/162 154/220/162
f 149/222/163 159/204/163 158/223/163
f 158/224/164 149/225/164 160/226/164
f 151/218/151 156/217/151 164/209/151 161/208/151
f 150/221/152 162/211/152 152/210/152 149/222/152
f 156/217/153 157/215/153 165/194/153 164/209/153
f 152/210/154 159/204/154 149/222/154
f 150/221/155 151/218/155 161/208/155 162/211/155
f 163/191/156 153/216/156 154/220/156 155/201/156
f 167/227/165 168/228/165 166/229/165
o Cube.001
v 0.000000 0.510540 -1.191404
v -0.183834 0.814120 -1.288699
v -0.000000 0.917538 -0.515453
v 0.183834 0.814120 -1.288699
v 0.000000 0.444059 -1.597241
v -0.183834 0.758308 -1.650856
v -0.000000 0.751903 -0.870750
v 0.183834 0.758308 -1.650856
v 0.000000 0.508645 -1.930100
v -0.146904 0.762203 -1.905509
v -0.000000 0.593590 -1.305333
v 0.146904 0.762203 -1.905509
v 0.000000 0.598204 -2.275741
v -0.130853 0.820038 -2.227997
v -0.000000 0.609337 -1.714228
v 0.130853 0.820038 -2.227997
v 0.000000 0.510540 -1.191404
v -0.183834 0.814120 -1.288699
v -0.000000 0.917538 -0.515453
v 0.183834 0.814120 -1.288699
v 0.000000 0.444059 -1.597241
v -0.183834 0.758308 -1.650856
v -0.000000 0.751903 -0.870750
v 0.183834 0.758308 -1.650856
v 0.000000 0.508645 -1.930100
v -0.146904 0.762203 -1.905509
v -0.000000 0.593590 -1.305333
v 0.146904 0.762203 -1.905509
v 0.000000 0.598204 -2.275741
v -0.130853 0.820038 -2.227997
v -0.000000 0.609337 -1.714228
v 0.130853 0.820038 -2.227997
vt 0.987696 0.856452
vt 0.987696 0.706756
vt 0.670065 0.781604
vt 0.916157 0.988100
vt 0.916158 0.575107
vt 0.987696 0.856452
vt 0.987696 0.706756
vt 0.670065 0.781604
vt 0.916157 0.988100
vt 0.916158 0.575107
vt 0.987696 0.856452
vt 0.987696 0.706756
vt 0.670065 0.781604
vt 0.916157 0.988100
vt 0.916158 0.575107
vt 0.987696 0.856452
vt 0.987696 0.706756
vt 0.670065 0.781604
vt 0.916157 0.988100
vt 0.916158 0.575107
vt 0.987696 0.856452
vt 0.670065 0.781604
vt 0.987696 0.706756
vt 0.916157 0.988100
vt 0.916158 0.575107
vt 0.987696 0.856452
vt 0.670065 0.781604
vt 0.987696 0.706756
vt 0.916157 0.988100
vt 0.916158 0.575107
vt 0.987696 0.856452
vt 0.670065 0.781604
vt 0.987696 0.706756
vt 0.916157 0.988100
vt 0.916158 0.575107
vt 0.987696 0.856452
vt 0.670065 0.781604
vt 0.987696 0.706756
vt 0.916157 0.988100
vt 0.916158 0.575107
vn 0.0000 -0.9912 0.1326
vn 0.8603 0.4367 -0.2629
vn -0.8603 0.4367 -0.2629
vn 0.0000 -1.0000 -0.0082
vn 0.8603 0.4694 -0.1989
vn -0.8603 0.4694 -0.1989
vn 0.0000 -0.9627 -0.2705
vn 0.8603 0.5051 -0.0687
vn -0.8603 0.5051 -0.0687
vn 0.0000 -0.9252 -0.3794
vn 0.8603 0.5097 -0.0101
vn -0.8603 0.5097 -0.0101
vn 0.0000 0.9912 -0.1326
vn -0.8603 -0.4367 0.2629
vn 0.8603 -0.4367 0.2629
vn 0.0000 1.0000 0.0082
vn -0.8603 -0.4694 0.1989
vn 0.8603 -0.4694 0.1989
vn 0.0000 0.9627 0.2705
vn -0.8603 -0.5051 0.0687
vn 0.8603 -0.5051 0.0687
vn 0.0000 0.9252 0.3794
vn -0.8603 -0.5097 0.0101
vn 0.8603 -0.5097 0.0101
usemtl Material
s off
f 170/230/166 172/231/166 171/232/166
f 169/233/167 170/230/167 171/232/167
f 172/231/168 169/234/168 171/232/168
f 174/235/169 176/236/169 175/237/169
f 173/238/170 174/235/170 175/237/170
f 176/236/171 173/239/171 175/237/171
f 178/240/172 180/241/172 179/242/172
f 177/243/173 178/240/173 179/242/173
f 180/241/174 177/244/174 179/242/174
f 182/245/175 184/246/175 183/247/175
f 181/248/176 182/245/176 183/247/176
f 184/246/177 181/249/177 183/247/177
f 186/250/178 187/251/178 188/252/178
f 185/253/179 187/251/179 186/250/179
f 188/252/180 187/251/180 185/254/180
f 190/255/181 191/256/181 192/257/181
f 189/258/182 191/256/182 190/255/182
f 192/257/183 191/256/183 189/259/183
f 194/260/184 195/261/184 196/262/184
f 193/263/185 195/261/185 194/260/185
f 196/262/186 195/261/186 193/264/186
f 198/265/187 199/266/187 200/267/187
f 197/268/188 199/266/188 198/265/188
f 200/267/189 199/266/189 197/269/189
