# Blender 3.5.0
# www.blender.org
mtllib player.mtl
o Cube.004
v 0.166096 0.001561 0.060212
v 0.139287 0.259623 0.033403
v 0.166096 0.001561 -0.060212
v 0.139287 0.259623 -0.033403
v 0.045672 0.001561 0.060212
v 0.072481 0.259623 0.033403
v 0.045672 0.001561 -0.060212
v 0.072481 0.259623 -0.033403
vn 0.9946 0.1033 -0.0000
vn -0.0000 0.1033 -0.9946
vn -0.9946 0.1033 -0.0000
vn -0.0000 0.1033 0.9946
vn -0.0000 -1.0000 -0.0000
vt 0.873534 0.094108
vt 0.873534 0.210857
vt 0.819918 0.099649
vt 0.843790 0.213931
vt 0.927151 0.099649
vt 0.867994 0.040492
vt 0.903279 0.213931
vt 0.768567 0.116036
vt 0.978502 0.116035
vt 0.814377 0.046032
vt 0.815303 0.223022
vt 0.931766 0.223021
s 0
usemtl Material
f 2/2/1 1/1/1 3/3/1 4/4/1
f 4/4/2 3/3/2 7/8/2 8/11/2
f 8/12/3 7/9/3 5/5/3 6/7/3
f 6/7/4 5/5/4 1/1/4 2/2/4
f 1/1/5 5/6/5 7/10/5 3/3/5
o Cube.003
v -0.166096 0.001561 0.060212
v -0.139287 0.259623 0.033403
v -0.166096 0.001561 -0.060212
v -0.139287 0.259623 -0.033403
v -0.045672 0.001561 0.060212
v -0.072481 0.259623 0.033403
v -0.045672 0.001561 -0.060212
v -0.072481 0.259623 -0.033403
vn -0.9946 0.1033 -0.0000
vn -0.0000 0.1033 -0.9946
vn 0.9946 0.1033 -0.0000
vn -0.0000 0.1033 0.9946
vn -0.0000 -1.0000 -0.0000
vt 0.873534 0.094108
vt 0.873534 0.210857
vt 0.819918 0.099649
vt 0.843790 0.213931
vt 0.927151 0.099649
vt 0.867994 0.040492
vt 0.903279 0.213931
vt 0.768567 0.116036
vt 0.978502 0.116035
vt 0.814377 0.046032
vt 0.815303 0.223022
vt 0.931766 0.223021
s 0
usemtl Material
f 10/14/6 12/16/6 11/15/6 9/13/6
f 12/16/7 16/23/7 15/20/7 11/15/7
f 16/24/8 14/19/8 13/17/8 15/21/8
f 14/19/9 10/14/9 9/13/9 13/17/9
f 9/13/10 11/15/10 15/22/10 13/18/10
o Cube.002
v -0.355745 0.364173 0.060212
v -0.169955 0.545272 0.033403
v -0.355745 0.364173 -0.060212
v -0.169955 0.545272 -0.033403
v -0.248738 0.274046 0.060212
v -0.118631 0.502508 0.033403
v -0.248738 0.274046 -0.060212
v -0.118631 0.502508 -0.033403
v -0.337743 0.217578 0.000000
vn -0.6980 0.7161 -0.0000
vn 0.0663 0.0790 -0.9947
vn 0.8690 -0.4949 -0.0000
vn 0.0663 0.0790 0.9947
vn -0.3310 -0.3930 -0.8579
vn -0.3310 -0.3930 0.8579
vn 0.5357 -0.8444 -0.0000
vn -0.9925 -0.1219 -0.0000
vt 0.872087 0.377858
vt 0.873917 0.478024
vt 0.842068 0.372405
vt 0.837410 0.479779
vt 0.907613 0.364718
vt 0.910679 0.478902
vt 0.790269 0.326216
vt 0.966562 0.332872
vt 0.798826 0.479685
vt 0.948097 0.479778
vt 0.877251 0.300905
s 0
usemtl Material
f 18/26/11 20/28/11 19/27/11 17/25/11
f 20/28/12 24/33/12 23/31/12 19/27/12
f 24/34/13 22/30/13 21/29/13 23/32/13
f 22/30/14 18/26/14 17/25/14 21/29/14
f 19/27/15 23/31/15 25/35/15
f 21/29/16 17/25/16 25/35/16
f 23/32/17 21/29/17 25/35/17
f 17/25/18 19/27/18 25/35/18
o Cube.001
v 0.355745 0.364173 0.060212
v 0.169955 0.545272 0.033403
v 0.355745 0.364173 -0.060212
v 0.169955 0.545272 -0.033403
v 0.248738 0.274046 0.060212
v 0.118631 0.502508 0.033403
v 0.248738 0.274046 -0.060212
v 0.118631 0.502508 -0.033403
v 0.337743 0.217578 0.000000
vn 0.6980 0.7161 -0.0000
vn -0.0663 0.0790 -0.9947
vn -0.8690 -0.4949 -0.0000
vn -0.0663 0.0790 0.9947
vn 0.3310 -0.3930 -0.8579
vn 0.3310 -0.3930 0.8579
vn -0.5357 -0.8444 -0.0000
vn 0.9925 -0.1219 -0.0000
vt 0.872087 0.377858
vt 0.873917 0.478024
vt 0.842068 0.372405
vt 0.837410 0.479779
vt 0.907613 0.364718
vt 0.910679 0.478902
vt 0.790269 0.326216
vt 0.966562 0.332872
vt 0.798826 0.479685
vt 0.948097 0.479778
vt 0.877251 0.300905
s 0
usemtl Material
f 27/37/19 26/36/19 28/38/19 29/39/19
f 29/39/20 28/38/20 32/42/20 33/44/20
f 33/45/21 32/43/21 30/40/21 31/41/21
f 31/41/22 30/40/22 26/36/22 27/37/22
f 28/38/23 34/46/23 32/42/23
f 30/40/24 34/46/24 26/36/24
f 32/43/25 34/46/25 30/40/25
f 26/36/26 34/46/26 28/38/26
o Cube
v -0.000000 0.722975 -0.160304
v 0.138828 0.722975 -0.080152
v 0.000000 0.126147 -0.186797
v 0.000000 0.414203 -0.250589
v 0.161771 0.126147 -0.093399
v 0.217017 0.414203 -0.125295
v 0.161771 0.126147 0.093399
v 0.217017 0.414203 0.125295
v -0.000000 0.126147 0.186797
v -0.000000 0.414203 0.250589
v -0.161771 0.126147 0.093399
v -0.217017 0.414203 0.125295
v -0.161771 0.126147 -0.093399
v -0.217017 0.414203 -0.125295
v 0.138828 0.722975 0.080152
v -0.000000 0.722975 0.160304
v -0.138828 0.722975 0.080152
v -0.138828 0.722975 -0.080152
v 0.000000 0.795995 -0.519222
v -0.449660 0.795995 -0.259611
v -0.449660 0.795995 0.259611
v -0.000000 0.795995 0.519222
v 0.449660 0.795995 0.259611
v 0.449660 0.795995 -0.259611
v 0.000000 1.016973 -0.234330
v -0.202935 1.016973 -0.117165
v -0.202935 1.016973 0.117165
v -0.000000 1.016973 0.234330
v 0.202935 1.016973 0.117165
v 0.202935 1.016973 -0.117165
vn 0.2287 -0.9735 -0.0000
vn 0.4847 0.2455 -0.8395
vn 0.4911 -0.1884 -0.8505
vn 0.1143 -0.9735 -0.1981
vn -0.4847 0.2455 -0.8395
vn 0.9821 -0.1884 -0.0000
vn 0.3336 0.7449 -0.5778
vn 0.9694 0.2455 -0.0000
vn 0.4911 -0.1884 0.8505
vn -0.4847 0.2455 0.8395
vn -0.2287 -0.9735 -0.0000
vn -0.4911 -0.1884 0.8505
vn -0.9694 0.2455 -0.0000
vn -0.4911 -0.1884 -0.8505
vn -0.9821 -0.1884 -0.0000
vn 0.1143 -0.9735 0.1981
vn 0.4847 0.2455 0.8395
vn -0.0000 -1.0000 -0.0000
vn -0.1143 -0.9735 -0.1981
vn -0.1143 -0.9735 0.1981
vn 0.3336 0.7449 0.5778
vn -0.6672 0.7449 -0.0000
vn 0.6672 0.7449 -0.0000
vn -0.3336 0.7449 0.5778
vn -0.3336 0.7449 -0.5778
vn -0.0000 1.0000 -0.0000
vt 0.096319 0.518483
vt 0.559584 0.458021
vt 0.835793 0.746848
vt 0.794160 0.810480
vt 0.490351 0.445816
vt 0.583736 0.196875
vt 0.029631 0.191326
vt 0.236937 0.028596
vt 0.603332 0.323895
vt 0.018933 0.357245
vt 0.502445 0.200515
vt 0.330998 0.030015
vt 0.502587 0.317679
vt 0.417510 0.196723
vt 0.376800 0.112185
vt 0.415893 0.315759
vt 0.328539 0.192935
vt 0.329743 0.317796
vt 0.234478 0.191515
vt 0.239281 0.324416
vt 0.134895 0.192300
vt 0.188676 0.109346
vt 0.139849 0.336722
vt 0.722579 0.805511
vt 0.417056 0.445943
vt 0.341117 0.453321
vt 0.689611 0.741780
vt 0.726914 0.680486
vt 0.261999 0.466863
vt 0.179902 0.487452
vt 0.798666 0.680486
vt 0.525393 0.764364
vt 0.999244 0.752515
vt 0.878992 0.537569
vt 0.393176 0.991195
vt 0.646587 0.537569
vt 0.130971 0.991195
vt 0.525766 0.736100
vt 0.000187 0.764400
vt 0.632548 0.942521
vt 0.132403 0.537569
vt 0.864395 0.958616
vt 0.394609 0.537569
vt 0.360297 0.770130
vt 0.306106 0.849962
vt 0.208756 0.844708
vt 0.165283 0.758634
vt 0.219474 0.678803
vt 0.316824 0.684056
s 0
usemtl Material
f 49/70/27 58/88/27 57/86/27
f 38/55/28 36/51/28 40/59/28
f 38/55/29 39/57/29 37/52/29
f 35/49/30 58/88/30 36/50/30
f 38/56/31 52/76/31 35/47/31
f 40/59/32 41/60/32 39/57/32
f 58/89/33 59/90/33 64/95/33
f 40/59/34 49/71/34 42/62/34
f 42/62/35 43/63/35 41/60/35
f 46/66/36 50/72/36 51/75/36
f 51/74/37 54/80/37 52/77/37
f 44/64/38 45/65/38 43/63/38
f 46/66/39 52/76/39 48/69/39
f 47/67/40 38/56/40 37/53/40
f 46/66/41 47/67/41 45/65/41
f 49/70/42 56/84/42 50/73/42
f 42/62/43 50/72/43 44/64/43
f 45/65/44 47/68/44 39/58/44
f 52/77/45 53/79/45 35/49/45
f 50/73/46 55/82/46 51/74/46
f 56/85/47 63/94/47 62/93/47
f 55/83/48 60/91/48 54/81/48
f 57/87/49 64/95/49 63/94/49
f 56/85/50 61/92/50 55/83/50
f 54/81/51 59/90/51 53/78/51
f 59/90/52 60/91/52 64/95/52
f 63/94/52 64/95/52 60/91/52
f 60/91/52 61/92/52 63/94/52
f 62/93/52 63/94/52 61/92/52
f 49/70/27 36/50/27 58/88/27
f 38/55/28 35/48/28 36/51/28
f 38/55/29 40/59/29 39/57/29
f 35/49/30 53/79/30 58/88/30
f 38/56/31 48/69/31 52/76/31
f 40/59/32 42/62/32 41/60/32
f 58/89/33 53/78/33 59/90/33
f 40/59/34 36/51/34 49/71/34
f 42/62/35 44/64/35 43/63/35
f 46/66/36 44/64/36 50/72/36
f 51/74/37 55/82/37 54/80/37
f 44/64/38 46/66/38 45/65/38
f 46/66/39 51/75/39 52/76/39
f 47/67/40 48/69/40 38/56/40
f 46/66/41 48/69/41 47/67/41
f 49/70/42 57/86/42 56/84/42
f 42/62/43 49/71/43 50/72/43
f 47/68/44 37/54/44 39/58/44
f 39/58/44 41/61/44 43/63/44
f 43/63/44 45/65/44 39/58/44
f 52/77/45 54/80/45 53/79/45
f 50/73/46 56/84/46 55/82/46
f 56/85/47 57/87/47 63/94/47
f 55/83/48 61/92/48 60/91/48
f 57/87/49 58/89/49 64/95/49
f 56/85/50 62/93/50 61/92/50
f 54/81/51 60/91/51 59/90/51
