# Blender 3.4.1
# www.blender.org
mtllib Tree3.mtl
o Tree
v -0.010815 -0.030231 -0.347484
v -0.000000 1.008176 -0.153933
v 0.264579 -0.030231 -0.157607
v 0.108847 1.008176 -0.108847
v 0.405025 -0.030231 -0.002417
v 0.153933 1.008176 0.000000
v 0.238691 -0.030231 0.254677
v 0.108847 1.008176 0.108847
v -0.066588 -0.030231 0.384674
v -0.000000 1.008176 0.153933
v -0.252257 -0.030231 0.231901
v -0.108847 1.008176 0.108847
v -0.381879 -0.030231 -0.023513
v -0.153933 1.008176 -0.000000
v -0.232587 -0.030231 -0.251032
v -0.108847 1.008176 -0.108847
v 0.002004 0.333269 -0.230924
v 0.002574 0.770432 -0.150281
v 0.109571 0.771751 -0.116792
v 0.165749 0.334367 -0.175944
v 0.169012 0.764240 0.012331
v 0.251508 0.328118 0.014042
v 0.116955 0.803199 0.116986
v 0.174507 0.360533 0.175008
v 0.000787 0.770363 0.149910
v -0.000114 0.333213 0.229318
v -0.093682 0.788931 0.130465
v -0.149000 0.348662 0.190994
v -0.149661 0.767023 0.000555
v -0.230653 0.330434 0.000075
v -0.110484 0.804759 -0.118089
v -0.168928 0.361830 -0.177482
v -0.528830 1.663327 -0.528830
v -0.747879 1.663327 -0.000000
v -0.000000 0.931694 -0.988362
v -0.000000 2.187380 0.000000
v 0.698877 0.931694 -0.698877
v -0.528830 1.663327 0.528830
v 0.988362 0.931694 0.000000
v -0.000000 1.663327 0.747879
v 0.698877 0.931694 0.698877
v 0.528830 1.663327 0.528830
v -0.000000 0.931694 0.988362
v 0.747879 1.663327 0.000000
v -0.698877 0.931694 0.698877
v 0.528830 1.663327 -0.528830
v -0.988362 0.931694 -0.000000
v -0.000000 2.613486 -0.000000
v -0.698877 0.931694 -0.698877
v -0.000000 1.663327 -0.747879
v -0.430091 2.251499 -0.430091
v -0.608241 2.251499 -0.000000
v -0.430091 2.251499 0.430091
v -0.000000 2.251499 0.608241
v 0.430091 2.251499 0.430091
v 0.608241 2.251499 0.000000
v 0.430091 2.251499 -0.430091
v -0.000000 3.024252 -0.000000
v -0.000000 2.251499 -0.608241
v -0.335938 2.730391 -0.335938
v -0.475088 2.730391 -0.000000
v -0.335938 2.730391 0.335938
v -0.000000 2.730391 0.475088
v 0.335938 2.730391 0.335938
v 0.475088 2.730391 0.000000
v 0.335938 2.730391 -0.335938
v -0.000000 3.333977 -0.000000
v -0.000000 2.730391 -0.475088
vn 0.0236 0.1036 -0.9943
vn 0.0043 0.6297 -0.7768
vn 0.5291 0.6392 -0.5581
vn 0.6704 0.1033 -0.7348
vn 0.7589 0.6511 -0.0089
vn 0.9918 0.1277 0.0032
vn 0.5147 0.6487 0.5606
vn 0.6610 0.1043 0.7431
vn 0.0098 0.6318 0.7751
vn 0.0194 0.1089 0.9939
vn -0.5368 0.6355 0.5550
vn -0.6439 0.0892 0.7599
vn -0.7804 0.6250 0.0181
vn -0.9942 0.0996 0.0398
vn -0.5427 0.6381 -0.5462
vn -0.6925 0.0852 -0.7164
vn 0.0583 -0.5115 -0.8573
vn 0.5670 -0.5972 -0.5673
vn 0.8949 -0.4450 -0.0343
vn 0.5480 -0.5351 0.6429
vn -0.0937 -0.4625 0.8816
vn -0.6254 -0.5446 0.5589
vn -0.8825 -0.4698 -0.0236
vn -0.5594 -0.5410 -0.6280
vn -0.6606 0.2465 -0.7091
vn 0.0594 0.2096 -0.9760
vn -0.9639 0.2654 0.0209
vn -0.6576 0.2634 0.7058
vn -0.0041 0.2564 0.9666
vn 0.6336 0.2413 0.7351
vn 0.9648 0.2628 -0.0108
vn 0.6490 0.2063 -0.7323
vn 0.9295 -0.3688 -0.0000
vn -0.0000 1.0000 -0.0000
vn 0.6573 -0.3688 0.6573
vn -0.6573 -0.3688 -0.6573
vn -0.0000 -0.3688 -0.9295
vn 0.6573 -0.3688 -0.6573
vn -0.9295 -0.3688 -0.0000
vn -0.0000 -0.3688 0.9295
vn -0.6573 -0.3688 0.6573
vt 0.687248 0.256262
vt 0.841695 0.739098
vt 0.841675 0.392808
vt 0.999725 0.486588
vt 0.999725 0.643394
vt 0.701364 0.316116
vt 0.813587 0.441777
vt 0.993472 0.505907
vt 0.701364 0.354594
vt 0.794427 0.471167
vt 0.988179 0.525462
vt 0.646977 0.369120
vt 0.786560 0.521455
vt 0.985532 0.545392
vt 0.589329 0.349181
vt 0.779397 0.575953
vt 0.984925 0.565401
vt 0.582866 0.305453
vt 0.786378 0.616082
vt 0.986291 0.585244
vt 0.596705 0.254648
vt 0.795645 0.663670
vt 0.989189 0.605057
vt 0.645121 0.242052
vt 0.818371 0.703824
vt 0.993750 0.624329
vt 0.893824 0.697348
vt 0.891924 0.434468
vt 0.961166 0.656743
vt 0.960317 0.473906
vt 0.952741 0.493002
vt 0.876874 0.461003
vt 0.943911 0.518659
vt 0.860778 0.496366
vt 0.947600 0.542415
vt 0.859615 0.531245
vt 0.940846 0.566201
vt 0.852581 0.566549
vt 0.945081 0.585090
vt 0.856827 0.596310
vt 0.946023 0.613304
vt 0.862578 0.636393
vt 0.958739 0.634659
vt 0.880964 0.667213
vt 0.014652 0.527158
vt 0.517519 0.729095
vt 0.075363 0.441206
vt 0.443110 0.803504
vt 0.568171 0.392259
vt 0.014421 0.392259
vt 0.541445 0.392808
vt 0.291296 0.294051
vt 0.582317 0.253913
vt 0.680512 0.392808
vt 0.168802 0.392808
vt 0.443110 0.908735
vt 0.531250 0.124562
vt 0.778848 0.491144
vt 0.274033 0.392808
vt 0.517519 0.983144
vt 0.426412 0.033190
vt 0.778848 0.630211
vt 0.367473 0.441206
vt 0.622749 0.983144
vt 0.291296 0.000274
vt 0.680512 0.728547
vt 0.428183 0.527158
vt 0.697158 0.908735
vt 0.156180 0.033190
vt 0.541445 0.728547
vt 0.442561 0.631401
vt 0.697158 0.803505
vt 0.051342 0.124562
vt 0.443110 0.630211
vt 0.221418 0.608788
vt 0.000274 0.253913
vt 0.443110 0.491144
vt 0.000274 0.631401
vt 0.407383 0.730577
vt 0.622749 0.729095
vt 0.582866 0.156364
vt 0.779397 0.800163
vt 0.614293 0.076761
vt 0.779397 0.885746
vt 0.678811 0.020531
vt 0.839913 0.946261
vt 0.761962 0.000274
vt 0.925495 0.946261
vt 0.845112 0.020531
vt 0.986011 0.885746
vt 0.909630 0.076761
vt 0.986011 0.800163
vt 0.941057 0.156364
vt 0.925495 0.739647
vt 0.761962 0.181065
vt 0.591572 0.241503
vt 0.932351 0.241503
vt 0.839913 0.739647
vt 0.000274 0.853046
vt 0.327869 0.731126
vt 0.024822 0.790869
vt 0.280601 0.778394
vt 0.075216 0.746948
vt 0.280601 0.845241
vt 0.140163 0.731126
vt 0.327869 0.892510
vt 0.205111 0.746948
vt 0.394717 0.892510
vt 0.255505 0.790869
vt 0.441985 0.845242
vt 0.280052 0.853046
vt 0.441985 0.778394
vt 0.140163 0.872339
vt 0.007075 0.919546
vt 0.273252 0.919546
vt 0.394717 0.731126
s 1
f 18/30/1 2/4/2 4/8/3 19/31/4
f 19/31/4 4/8/3 6/11/5 21/33/6
f 21/33/6 6/11/5 8/14/7 23/35/8
f 23/35/8 8/14/7 10/17/9 25/37/10
f 25/37/10 10/17/9 12/20/11 27/39/12
f 27/39/12 12/20/11 14/23/13 29/41/14
f 29/41/14 14/23/13 16/26/15 31/43/16
f 31/43/16 16/26/15 2/5/2 18/29/1
f 1/1/17 3/6/18 5/9/19 7/12/20 9/15/21 11/18/22 13/21/23 15/24/24
f 15/25/24 32/44/25 17/27/26 1/2/17
f 32/44/25 31/43/16 18/29/1 17/27/26
f 13/22/23 30/42/27 32/44/25 15/25/24
f 30/42/27 29/41/14 31/43/16 32/44/25
f 11/19/22 28/40/28 30/42/27 13/22/23
f 28/40/28 27/39/12 29/41/14 30/42/27
f 9/16/21 26/38/29 28/40/28 11/19/22
f 26/38/29 25/37/10 27/39/12 28/40/28
f 7/13/20 24/36/30 26/38/29 9/16/21
f 24/36/30 23/35/8 25/37/10 26/38/29
f 5/10/19 22/34/31 24/36/30 7/13/20
f 22/34/31 21/33/6 23/35/8 24/36/30
f 3/7/18 20/32/32 22/34/31 5/10/19
f 20/32/32 19/31/4 21/33/6 22/34/31
f 1/3/17 17/28/26 20/32/32 3/7/18
f 17/28/26 18/30/1 19/31/4 20/32/32
f 56/91/33 58/95/34 55/89/35
f 33/45/36 48/75/34 50/78/37
f 35/49/37 36/52/34 37/53/38
f 57/93/38 58/95/34 56/91/33
f 34/47/39 48/75/34 33/45/36
f 37/53/38 36/52/34 39/57/33
f 54/87/40 58/95/34 53/85/41
f 38/55/41 48/75/34 34/47/39
f 39/57/33 36/52/34 41/61/35
f 53/85/41 58/95/34 52/83/39
f 40/59/40 48/75/34 38/55/41
f 41/61/35 36/52/34 43/65/40
f 52/83/39 58/95/34 51/81/36
f 42/63/35 48/75/34 40/59/40
f 43/65/40 36/52/34 45/69/41
f 51/81/36 58/95/34 59/96/37
f 44/67/33 48/75/34 42/63/35
f 45/69/41 36/52/34 47/73/39
f 46/71/38 48/75/34 44/67/33
f 50/79/37 48/75/34 46/71/38
f 47/73/39 36/52/34 49/76/36
f 55/89/35 58/95/34 54/87/40
f 50/80/37 46/72/38 44/68/33 42/64/35 40/60/40 38/56/41 34/48/39 33/46/36
f 49/76/36 36/52/34 35/50/37
f 35/51/37 37/54/38 39/58/33 41/62/35 43/66/40 45/70/41 47/74/39 49/77/36
f 59/97/37 58/95/34 57/93/38
f 59/98/37 57/94/38 56/92/33 55/90/35 54/88/40 53/86/41 52/84/39 51/82/36
f 65/109/33 67/113/34 64/107/35
f 66/111/38 67/113/34 65/109/33
f 63/105/40 67/113/34 62/103/41
f 62/103/41 67/113/34 61/101/39
f 61/101/39 67/113/34 60/99/36
f 60/99/36 67/113/34 68/114/37
f 64/107/35 67/113/34 63/105/40
f 68/115/37 67/113/34 66/111/38
f 68/116/37 66/112/38 65/110/33 64/108/35 63/106/40 62/104/41 61/102/39 60/100/36
f 4/8/3 2/5/2 16/26/15 14/23/13 12/20/11 10/17/9 8/14/7 6/11/5
